<svg width="24" height="24" viewBox="0 0 24 24" fill="none" xmlns="http://www.w3.org/2000/svg">
  <path d="M12 8.5a3.5 3.5 0 1 0 0 7 3.5 3.5 0 0 0 0-7Z" stroke="#C5C5C5" stroke-width="1.7"/>
  <path d="M13.25 3.75h-2.5l-.55 2.1a6.9 6.9 0 0 0-1.55.9l-2.05-.6-1.25 2.15 1.5 1.5a7 7 0 0 0 0 1.8l-1.5 1.5 1.25 2.15 2.05-.6c.48.37 1 .67 1.55.9l.55 2.1h2.5l.55-2.1c.55-.23 1.07-.53 1.55-.9l2.05.6 1.25-2.15-1.5-1.5a7 7 0 0 0 0-1.8l1.5-1.5-1.25-2.15-2.05.6a6.9 6.9 0 0 0-1.55-.9l-.55-2.1Z" stroke="#C5C5C5" stroke-width="1.7" stroke-linejoin="round"/>
</svg>
